<svg width="17" height="18" viewBox="0 0 17 18" fill="none" xmlns="http://www.w3.org/2000/svg">
<g id="message 1">
<g id="Group">
<g id="Group_2">
<path id="Vector" d="M1.49414 2.83032H15.5059C16.3297 2.83032 17 3.4979 17 4.31846V12.9425C17 13.763 16.3297 14.4306 15.5059 14.4306H1.49414C0.670271 14.4306 0 13.763 0 12.9425V4.31846C0 3.4979 0.670271 2.83032 1.49414 2.83032ZM1.68914 3.82242L1.88856 3.9878L7.90719 8.97938C8.25071 9.26425 8.74936 9.26425 9.09281 8.97938L15.1114 3.9878L15.3109 3.82242H1.68914ZM16.0039 4.53864L11.1001 8.60566L16.0039 11.8562V4.53864ZM1.49414 13.4385H15.5059C15.7465 13.4385 15.9478 13.2676 15.9939 13.0413L10.3014 9.26802L9.73018 9.74177C9.37377 10.0374 8.93685 10.1851 8.49997 10.1851C8.06308 10.1851 7.62619 10.0374 7.26976 9.74177L6.69853 9.26802L1.00605 13.0413C1.05221 13.2676 1.25348 13.4385 1.49414 13.4385ZM0.996094 11.8562L5.89993 8.60569L0.996094 4.53864V11.8562Z" fill="white"/>
</g>
</g>
</g>
</svg>
