<svg width="17" height="18" viewBox="0 0 17 18" fill="none" xmlns="http://www.w3.org/2000/svg">
<g id="padlock 1" clip-path="url(#clip0_11_4295)">
<g id="Group">
<g id="Group_2">
<path id="Vector" d="M13.0031 7.91955V5.23819C13.0103 4.02493 12.5238 2.85834 11.6552 2.00763C10.8155 1.17486 9.71626 0.718994 8.55217 0.718994C8.53415 0.718994 8.51253 0.718994 8.49451 0.718994C6.01136 0.722584 3.99313 2.74707 3.99313 5.23819V7.91955C3.0561 8.03083 2.37134 8.81334 2.37134 9.76097V15.7842C2.37134 16.8072 3.19305 17.6507 4.22018 17.6507H12.7796C13.8068 17.6507 14.6285 16.8072 14.6285 15.7842V9.76097C14.6249 8.81693 13.9401 8.03083 13.0031 7.91955ZM4.71032 5.23819H4.71393C4.71393 3.14191 6.41141 1.42613 8.49811 1.42613H8.50172C9.49281 1.42254 10.4443 1.8138 11.147 2.51016C11.8787 3.23165 12.2859 4.21518 12.2787 5.23819V7.92314H11.4858V5.23819C11.493 4.42337 11.1687 3.64086 10.5884 3.06653C10.0406 2.52093 9.2982 2.21223 8.52334 2.21223H8.50172C6.84388 2.21223 5.5032 3.56907 5.5032 5.2346V7.92314H4.71032V5.23819ZM10.7686 5.23819V7.92314H6.2276V5.23819C6.2276 3.9675 7.24393 2.93372 8.50532 2.93372H8.52695C9.11079 2.93372 9.67301 3.16704 10.0875 3.57983C10.5272 4.01776 10.7758 4.6172 10.7686 5.23819ZM13.9401 15.7949C13.9401 16.4231 13.4284 16.9328 12.7977 16.9328H4.2346C3.6039 16.9328 3.09214 16.4231 3.09214 15.7949V9.77892C3.09214 9.15076 3.6039 8.64105 4.2346 8.64105H12.7977C13.4284 8.64105 13.9401 9.15076 13.9401 9.77892V15.7949Z" fill="white"/>
</g>
</g>
<g id="Group_3">
<g id="Group_4">
<path id="Vector_2" d="M9.74528 12.5643C9.58671 12.0079 9.07855 11.6274 8.49831 11.6274C7.78111 11.6274 7.19727 12.2054 7.19727 12.9233C7.19727 13.5012 7.57929 14.0073 8.13791 14.1652V15.1703C8.13791 15.3677 8.30009 15.5292 8.49831 15.5292C8.69652 15.5292 8.8587 15.3677 8.8587 15.1703V14.1652C9.54707 13.9678 9.94711 13.2499 9.74528 12.5643ZM8.49831 13.4976C8.17755 13.4976 7.91806 13.2391 7.91806 12.9197C7.91806 12.6002 8.17755 12.3418 8.49831 12.3418C8.81906 12.3418 9.07855 12.6002 9.07855 12.9197C9.07855 13.2391 8.81906 13.4976 8.49831 13.4976Z" fill="white"/>
</g>
</g>
</g>
<defs>
<clipPath id="clip0_11_4295">
<rect width="17" height="16.9317" fill="white" transform="translate(0 0.718994)"/>
</clipPath>
</defs>
</svg>
